<?xml version="1.0" standalone="no"?>
<!DOCTYPE svg PUBLIC "-//W3C//DTD SVG 20010904//EN"
 "http://www.w3.org/TR/2001/REC-SVG-20010904/DTD/svg10.dtd">
<svg version="1.0" xmlns="http://www.w3.org/2000/svg"
 width="225.000000pt" height="225.000000pt" viewBox="0 0 225.000000 225.000000"
 preserveAspectRatio="xMidYMid meet">

<g transform="translate(0.000000,225.000000) scale(0.100000,-0.100000)"
fill="#000000" stroke="none">
<path d="M1027 1643 c-12 -11 -7 -57 8 -77 15 -20 15 -20 30 0 23 30 28 54 15
69 -13 16 -42 20 -53 8z m43 -29 c0 -9 -7 -14 -17 -12 -25 5 -28 28 -4 28 12
0 21 -6 21 -16z"/>
<path d="M660 1620 c-30 -7 -64 -62 -56 -93 17 -68 105 -92 145 -41 53 68 -5
155 -89 134z m66 -18 c16 -10 34 -48 34 -71 0 -25 -45 -61 -76 -61 -58 0 -89
92 -42 124 24 17 65 21 84 8z"/>
<path d="M656 1574 c-23 -23 -20 -51 8 -69 45 -30 91 16 61 61 -18 28 -47 31
-69 8z m59 -34 c0 -34 -50 -42 -60 -11 -9 29 3 43 33 39 21 -2 27 -8 27 -28z"/>
<path d="M680 1540 c0 -5 5 -10 10 -10 6 0 10 5 10 10 0 6 -4 10 -10 10 -5 0
-10 -4 -10 -10z"/>
<path d="M1136 1461 c-4 -6 -13 -8 -22 -4 -9 3 -14 0 -12 -8 2 -8 -3 -13 -11
-11 -8 2 -11 -3 -8 -12 4 -9 2 -18 -4 -22 -7 -4 -6 -10 0 -18 6 -7 8 -16 4
-19 -3 -4 -1 -7 5 -7 7 0 12 -7 12 -16 0 -10 6 -14 14 -11 7 3 19 0 25 -6 8
-8 11 -8 11 2 0 8 6 11 15 7 9 -3 15 0 15 9 0 8 7 15 15 15 9 0 12 6 9 15 -4
9 -1 15 7 15 10 0 10 3 2 11 -6 6 -9 18 -6 27 4 10 2 13 -5 8 -6 -3 -15 2 -21
11 -6 10 -11 14 -11 9 0 -5 -6 -3 -14 3 -9 8 -16 8 -20 2z m29 -40 c-2 -1 0
-13 5 -25 7 -21 5 -23 -25 -23 -30 0 -32 2 -25 23 5 12 7 24 5 25 -2 2 7 4 20
4 13 0 22 -2 20 -4z"/>
<path d="M930 1450 c-13 -8 -12 -10 3 -10 9 0 17 5 17 10 0 12 -1 12 -20 0z"/>
<path d="M1240 1385 c0 -8 7 -15 15 -15 8 0 15 7 15 15 0 8 -7 15 -15 15 -8 0
-15 -7 -15 -15z"/>
<path d="M1470 1325 c0 -43 4 -75 10 -75 6 0 10 32 10 75 0 43 -4 75 -10 75
-6 0 -10 -32 -10 -75z"/>
<path d="M1390 1339 c0 -26 -3 -30 -17 -24 -10 4 -29 9 -43 11 -14 3 -30 6
-37 9 -14 5 -27 -30 -18 -45 3 -5 19 -10 36 -10 26 0 34 -9 30 -32 0 -4 7 -4
16 -1 12 5 14 3 9 -8 -5 -9 -3 -8 6 2 7 9 19 14 26 12 9 -4 12 12 12 56 0 34
-4 61 -10 61 -5 0 -10 -14 -10 -31z"/>
<path d="M1194 1328 c-6 -21 7 -40 31 -44 15 -2 30 30 21 45 -12 20 -45 19
-52 -1z m36 -13 c0 -8 -4 -15 -9 -15 -13 0 -22 16 -14 24 11 11 23 6 23 -9z"/>
<path d="M1430 1295 c0 -25 5 -45 10 -45 6 0 10 20 10 45 0 25 -4 45 -10 45
-5 0 -10 -20 -10 -45z"/>
<path d="M1630 1295 c0 -33 4 -45 15 -45 11 0 15 12 15 45 0 33 -4 45 -15 45
-11 0 -15 -12 -15 -45z"/>
<path d="M551 1294 c-33 -41 -26 -114 9 -114 16 0 17 5 10 28 -7 26 -5 30 26
44 40 18 44 15 44 -29 0 -18 5 -33 10 -33 6 0 10 13 10 28 0 15 6 34 13 41 10
10 9 11 -5 6 -12 -5 -18 -2 -18 7 0 21 -33 48 -58 48 -11 0 -30 -12 -41 -26z"/>
<path d="M866 1312 c-3 -5 1 -9 9 -9 8 0 12 4 9 9 -3 4 -7 8 -9 8 -2 0 -6 -4
-9 -8z"/>
<path d="M1590 1285 c0 -19 5 -35 10 -35 6 0 10 16 10 35 0 19 -4 35 -10 35
-5 0 -10 -16 -10 -35z"/>
<path d="M1550 1270 c0 -11 5 -20 10 -20 6 0 10 9 10 20 0 11 -4 20 -10 20 -5
0 -10 -9 -10 -20z"/>
<path d="M702 1267 c-8 -10 -6 -13 7 -13 11 0 17 6 14 13 -3 7 -6 13 -8 13 -1
0 -7 -6 -13 -13z"/>
<path d="M898 1218 c-21 -17 -30 -135 -12 -142 16 -6 27 25 18 49 -5 12 -4 16
4 11 6 -3 13 -2 17 3 4 7 15 6 31 -1 18 -8 28 -8 36 0 14 14 2 62 -16 62 -7 0
-19 7 -26 15 -15 18 -31 19 -52 3z"/>
<path d="M1323 1206 c-13 -6 -23 -17 -23 -24 0 -11 3 -10 15 1 8 9 20 17 27
20 7 2 11 6 8 9 -3 2 -15 -1 -27 -6z"/>
<path d="M1440 1208 l-25 -9 27 -17 c15 -9 28 -25 30 -36 4 -27 25 -31 37 -7
14 25 -1 67 -26 73 -10 3 -30 1 -43 -4z"/>
<path d="M1584 1209 c-3 -6 -1 -16 5 -22 8 -8 11 -5 11 11 0 24 -5 28 -16 11z"/>
<path d="M1665 1203 c-10 -3 -30 -12 -42 -20 -21 -14 -25 -14 -43 2 -18 17
-19 16 -25 -8 -10 -38 3 -52 28 -30 20 18 20 17 14 -5 -5 -21 -3 -23 16 -17
12 3 29 8 37 10 8 2 15 4 15 6 0 1 13 2 28 3 23 2 27 -2 24 -16 -3 -10 -1 -21
4 -24 5 -3 9 1 9 8 0 7 3 23 6 35 4 14 -1 28 -15 42 -22 22 -23 22 -56 14z"/>
<path d="M1440 1153 c0 -5 8 -17 17 -28 14 -18 15 -18 9 -2 -3 10 -6 23 -6 28
0 5 -4 9 -10 9 -5 0 -10 -3 -10 -7z"/>
<path d="M976 1067 c-4 -15 -11 -18 -30 -15 -18 4 -26 1 -26 -8 0 -22 -37 -16
-43 6 -6 23 -37 28 -37 6 0 -8 -2 -20 -3 -28 -2 -7 -2 -11 0 -8 1 3 52 4 112
2 l110 -3 4 -27 c2 -15 5 -3 6 26 l1 52 -36 0 c-19 0 -33 4 -30 8 3 5 -1 9 -9
9 -7 0 -16 -9 -19 -20z"/>
<path d="M1083 1083 c9 -2 23 -2 30 0 6 3 -1 5 -18 5 -16 0 -22 -2 -12 -5z"/>
<path d="M1400 1081 c0 -5 7 -12 16 -15 14 -5 15 -4 4 9 -14 17 -20 19 -20 6z"/>
<path d="M1485 1079 c-4 -6 -5 -12 -2 -15 2 -3 7 2 10 11 7 17 1 20 -8 4z"/>
<path d="M1110 999 c0 -50 -2 -59 -13 -50 -24 19 -28 -2 -5 -26 23 -24 48 -31
48 -12 0 8 5 8 15 -1 21 -17 45 -5 45 22 0 17 -3 19 -9 10 -6 -10 -10 -8 -14
9 -5 18 -9 20 -21 10 -20 -16 -25 -4 -22 52 2 34 0 47 -10 47 -10 0 -14 -16
-14 -61z"/>
<path d="M1380 1055 c0 -5 5 -17 10 -25 5 -8 10 -10 10 -5 0 6 -5 17 -10 25
-5 8 -10 11 -10 5z"/>
<path d="M1211 1016 c-46 -47 -36 -68 12 -26 34 29 49 60 29 60 -4 0 -23 -15
-41 -34z"/>
<path d="M1830 954 c0 -78 2 -86 21 -91 17 -5 19 -11 13 -37 -7 -35 -30 -82
-43 -90 -5 -3 -14 1 -21 10 -10 11 -10 18 -2 26 7 7 12 20 12 30 0 15 -9 18
-56 18 -39 0 -53 3 -48 12 4 7 3 8 -5 4 -6 -4 -48 -13 -93 -19 l-81 -12 -23
-115 c-13 -63 -24 -116 -24 -117 0 -2 11 -3 25 -3 14 0 25 4 25 9 0 5 5 22 12
38 l11 28 7 -35 c3 -22 11 -34 19 -32 25 5 30 -21 10 -46 -10 -13 -16 -28 -13
-33 8 -14 25 0 22 19 -6 35 92 55 146 31 14 -7 26 -21 28 -32 3 -21 44 -32 54
-15 13 21 -75 88 -116 88 -27 0 -26 31 3 58 17 16 36 22 70 22 36 0 49 4 54
18 3 9 12 24 19 32 26 31 35 99 28 210 -7 107 -8 110 -30 110 -23 0 -24 -2
-24 -86z m-184 -298 c12 -13 11 -15 -8 -19 -20 -4 -19 -4 5 -6 39 -2 38 -37
-3 -43 -32 -5 -40 5 -40 53 0 32 21 39 46 15z"/>
<path d="M830 985 c0 -8 4 -15 10 -15 5 0 7 7 4 15 -4 8 -8 15 -10 15 -2 0 -4
-7 -4 -15z"/>
<path d="M618 953 c-10 -3 -18 -9 -18 -14 0 -5 -11 -9 -24 -9 -13 0 -29 -7
-36 -15 -11 -13 -5 -15 49 -15 58 0 61 1 61 24 0 28 -7 34 -32 29z"/>
<path d="M1425 937 c3 -10 5 -23 5 -28 0 -5 37 -8 83 -7 l82 2 -76 3 c-67 3
-78 7 -88 26 -7 14 -10 15 -6 4z"/>
<path d="M1384 929 c-4 -8 -28 -10 -70 -6 -52 5 -64 4 -64 -8 0 -12 16 -15 75
-15 68 0 75 2 75 20 0 22 -5 25 -16 9z"/>
<path d="M528 805 c2 -37 -1 -71 -7 -78 -5 -7 -15 -46 -21 -86 -13 -78 -3
-124 27 -136 23 -8 27 0 14 36 -16 47 -14 71 14 131 14 29 25 63 25 76 0 12 4
22 9 22 5 0 9 -19 8 -42 -3 -80 3 -181 10 -175 3 4 12 -2 20 -13 15 -21 43
-27 43 -10 0 6 -8 23 -17 37 -14 21 -18 51 -19 147 0 67 -4 129 -9 139 -5 13
-19 17 -54 17 l-46 0 3 -65z"/>
<path d="M878 831 c3 -33 1 -39 -20 -44 -26 -7 -65 -66 -45 -68 7 0 31 0 53 1
29 1 43 -3 47 -14 4 -9 -1 -17 -11 -19 -12 -3 -11 -5 6 -6 35 -2 25 -22 -31
-67 -57 -44 -66 -68 -27 -68 17 0 25 5 25 16 0 22 14 35 40 40 18 3 20 -3 20
-62 0 -51 3 -65 15 -65 12 0 16 16 18 68 3 78 20 87 37 20 6 -24 15 -38 22
-36 7 3 16 -2 19 -11 6 -17 44 -23 44 -7 0 5 -7 14 -15 21 -8 7 -15 18 -15 24
0 6 5 4 10 -4 9 -13 11 -13 20 0 7 11 0 22 -25 43 -27 22 -35 36 -35 62 0 40
12 51 70 64 41 9 49 7 96 -20 47 -27 52 -33 58 -74 8 -47 -4 -68 -49 -93 -18
-10 -19 -11 -2 -17 9 -4 29 -4 45 1 15 4 32 8 37 8 6 1 11 25 13 54 3 47 5 52
23 47 25 -8 25 11 -1 25 -15 8 -20 21 -20 48 0 58 16 73 25 23 4 -23 9 -41 11
-38 2 2 7 45 12 95 l8 92 -58 0 -58 0 0 -85 0 -85 -52 29 -52 30 3 55 c2 45
-1 56 -13 56 -13 0 -16 -11 -16 -53 0 -64 -5 -72 -31 -46 -10 10 -26 19 -34
19 -14 0 -21 30 -16 68 1 9 -20 12 -76 12 l-79 0 4 -39z"/>
<path d="M280 795 c0 -23 2 -24 21 -15 16 9 18 14 8 26 -17 21 -29 17 -29 -11z"/>
<path d="M2028 799 c17 -18 15 -39 -3 -39 -8 0 -15 -5 -15 -11 0 -5 -5 -7 -10
-4 -6 4 -8 11 -5 16 3 5 -1 6 -9 3 -11 -4 -19 2 -26 17 -10 23 -10 23 -6 2 2
-12 -1 -24 -8 -27 -6 -2 -3 -5 6 -5 9 -1 20 -6 24 -13 5 -7 2 -9 -9 -5 -11 4
-14 2 -11 -8 7 -16 -33 -18 -53 -2 -9 6 -13 6 -13 -2 0 -6 5 -11 11 -11 5 0 7
-5 3 -12 -5 -8 -2 -9 9 -5 9 3 19 2 22 -3 4 -6 1 -10 -4 -10 -6 0 -11 -5 -11
-11 0 -5 5 -7 10 -4 6 3 10 1 10 -4 0 -6 7 -11 16 -11 8 0 13 -4 10 -8 -3 -5
-1 -26 5 -47 8 -28 13 -35 20 -24 7 11 9 11 9 -3 0 -12 8 -18 24 -18 30 0 35
7 40 59 2 25 11 48 22 57 15 12 16 16 5 21 -10 4 -7 11 11 27 13 11 18 17 11
13 -6 -5 -18 -5 -24 -1 -8 4 -9 3 -5 -4 5 -8 2 -10 -9 -6 -14 6 -14 9 0 30 8
13 15 27 15 31 0 4 -5 1 -10 -7 -5 -8 -10 -10 -10 -4 0 7 -12 20 -27 29 -16
10 -22 12 -15 4z m-28 -197 c0 -15 -2 -15 -10 -2 -13 20 -13 33 0 25 6 -3 10
-14 10 -23z"/>
<path d="M191 776 c-9 -10 -8 -15 4 -20 10 -4 15 1 15 14 0 24 -4 25 -19 6z"/>
<path d="M244 756 c-3 -8 -16 -17 -29 -20 -12 -3 -26 -13 -29 -22 -4 -10 -2
-14 6 -10 7 3 21 9 31 12 9 4 17 10 17 15 0 4 16 5 35 2 43 -7 45 1 5 22 -26
14 -31 14 -36 1z"/>
<path d="M296 712 c-3 -5 1 -9 9 -9 8 0 12 4 9 9 -3 4 -7 8 -9 8 -2 0 -6 -4
-9 -8z"/>
<path d="M224 698 c-3 -5 -9 -6 -14 -3 -4 3 -10 -3 -12 -13 -5 -19 -1 -112 5
-118 2 -2 17 -7 34 -10 26 -5 33 -2 43 16 7 12 12 38 13 56 1 19 5 34 9 34 4
0 0 9 -9 19 -9 11 -20 18 -25 15 -4 -3 -8 -1 -8 4 0 11 -29 11 -36 0z m4 -103
c-3 -3 -9 2 -12 12 -6 14 -5 15 5 6 7 -7 10 -15 7 -18z"/>
<path d="M1388 645 c-4 -16 -10 -48 -14 -70 -3 -22 -8 -49 -11 -60 -5 -20 -5
-20 16 1 19 18 22 30 19 90 -2 53 -5 62 -10 39z"/>
<path d="M1316 511 c-4 -7 -5 -15 -2 -18 9 -9 19 4 14 18 -4 11 -6 11 -12 0z"/>
<path d="M297 444 c-12 -12 4 -24 34 -24 19 0 29 5 29 15 0 15 -50 22 -63 9z"/>
<path d="M541 389 c-17 -7 -22 -15 -18 -29 3 -13 0 -20 -9 -20 -8 0 -14 4 -14
8 0 10 -66 9 -76 -1 -4 -4 -16 -7 -26 -7 -25 0 -48 -23 -48 -47 0 -17 32 -45
55 -49 6 0 12 -2 15 -4 13 -6 90 -5 90 2 0 5 9 8 21 8 11 0 27 6 35 14 17 18
19 56 2 56 -9 0 -8 3 2 9 8 6 17 8 21 5 4 -2 19 0 33 6 26 10 35 34 16 45 -18
11 -75 13 -99 4z m56 -25 c-3 -3 -12 -4 -19 -1 -8 3 -5 6 6 6 11 1 17 -2 13
-5z m-167 -38 c0 -2 -8 -10 -17 -17 -16 -13 -17 -12 -4 4 13 16 21 21 21 13z
m60 -26 c9 -6 20 -5 30 3 13 10 13 10 3 -3 -7 -9 -26 -14 -50 -13 -50 2 -52 3
-28 13 26 11 27 11 45 0z"/>
<path d="M1769 324 c-15 -18 -3 -48 16 -40 8 3 15 2 15 -3 0 -13 63 -2 79 14
11 11 12 17 3 28 -15 18 -98 19 -113 1z m66 -14 c3 -5 -1 -10 -9 -10 -9 0 -16
5 -16 10 0 6 4 10 9 10 6 0 13 -4 16 -10z"/>
</g>
</svg>
